<?xml version="1.0" encoding="utf-8"?><svg xmlns="http://www.w3.org/2000/svg" xmlns:xlink="http://www.w3.org/1999/xlink" width="1536" height="714" preserveAspectRatio="xMidYMid" viewBox="0 0 1536 714" style="z-index:1;margin-right:-2px;display:block;background-repeat-y:initial;background-repeat-x:initial;animation-play-state:paused" ><g transform="translate(768,357) scale(1,1) translate(-768,-357)" style="transform:matrix(1, 0, 0, 1, 0, 0);animation-play-state:paused" ><linearGradient id="lg-0.515335849694956" x1="0" x2="1" y1="0" y2="0" style="animation-play-state:paused" ><stop stop-color="#9966cb" offset="0" style="animation-play-state:paused" ></stop>

  
<stop stop-color="#9966cb" offset="1" style="animation-play-state:paused" ></stop></linearGradient>
<path d="M 0 0 L 0 581.486 Q 128 471.137 256 453.275 T 512 491.824 T 768 365.372 T 1024 206.98 T 1280 3.18093 T 1536 -47.9876 L 1536 0 Z" fill="url(#lg-0.515335849694956)" opacity="0.49" style="opacity:0.49;animation-play-state:paused" ></path>
<path d="M 0 0 L 0 561.003 Q 128 581.182 256 545.292 T 512 597.303 T 768 408.153 T 1024 297.575 T 1280 347.414 T 1536 252.696 L 1536 0 Z" fill="url(#lg-0.515335849694956)" opacity="0.49" style="opacity:0.49;animation-play-state:paused" ></path>
<path d="M 0 0 L 0 550.893 Q 128 546.495 256 519.683 T 512 406.626 T 768 382.858 T 1024 374.764 T 1280 227.408 T 1536 105.895 L 1536 0 Z" fill="url(#lg-0.515335849694956)" opacity="0.49" style="opacity:0.49;animation-play-state:paused" ></path>
<path d="M 0 0 L 0 662.118 Q 128 510.028 256 472.261 T 512 373.345 T 768 226.862 T 1024 123.655 T 1280 298.754 T 1536 244.288 L 1536 0 Z" fill="url(#lg-0.515335849694956)" opacity="0.49" style="opacity:0.49;animation-play-state:paused" ></path></g></svg>